<svg width="585" height="375" viewBox="0 0 585 375" fill="none" xmlns="http://www.w3.org/2000/svg">
<path d="M433.244 61.5539C330.059 44.5636 332.829 -9.4609 241.832 1.43987L239.897 1.67954L237.5 2.00798C221.718 4.2528 206.173 7.92815 191.057 12.9886L188.704 13.7964C170.138 20.2233 152.421 28.8793 135.94 39.5748L134.005 40.8442C61.1175 89.2141 24.2341 153.731 19.3519 219.269C17.1682 248.562 18.4642 272.601 21.5711 292.201C21.6421 292.654 21.7042 293.089 21.793 293.568C36.4132 369.421 40.6563 367.903 40.6563 367.903L118.497 366.669L479.785 366.553C480.673 366.553 481.614 366.553 482.528 366.553L531.067 367.397C555.505 364.033 572.566 305.907 576.072 292.991C576.143 292.743 576.206 292.494 576.277 292.245C605.188 184.409 540.84 79.2721 433.244 61.5539Z" fill="#D9E7FB"/>
<path d="M6.63972 301.277L5.67969 359.172L127.826 361.198L128.786 303.302L6.63972 301.277Z" fill="#AF3DCD"/>
<path d="M84.2687 340.24C89.1981 329.615 84.5815 317.007 73.9571 312.077C63.3328 307.148 50.724 311.764 45.7946 322.389C40.8652 333.013 45.4819 345.622 56.1062 350.551C66.7305 355.481 79.3393 350.864 84.2687 340.24Z" fill="#C7EBD5"/>
<path d="M1.33113 306.981L0.371094 364.877L122.518 366.902L123.478 309.006L1.33113 306.981Z" fill="black"/>
<path d="M1.33113 306.981L0.371094 364.877L122.518 366.902L123.478 309.006L1.33113 306.981Z" fill="url(#paint0_linear_117_10415)"/>
<path d="M77.2243 354.32C86.7486 347.504 88.944 334.257 82.1277 324.733C75.3115 315.209 62.0647 313.013 52.5403 319.829C43.016 326.646 40.8206 339.892 47.6369 349.417C54.4532 358.941 67.6999 361.137 77.2243 354.32Z" fill="#F0B8FF"/>
<path d="M52.4357 313.408L8.66398 312.68L7.88281 359.532L51.6545 360.26C47.4905 357.889 44.0409 354.442 41.6672 350.28C39.2935 346.117 38.0832 341.393 38.163 336.602C38.2429 331.812 39.6101 327.13 42.1212 323.049C44.6323 318.969 48.1949 315.638 52.4357 313.408Z" fill="#F0B8FF"/>
<path d="M91.5825 337.491C91.5045 342.282 90.138 346.965 87.6264 351.046C85.1148 355.127 81.5509 358.457 77.3086 360.686L115.39 361.325L116.171 314.464L78.0898 313.834C82.2539 316.204 85.7038 319.651 88.0777 323.814C90.4517 327.976 91.6622 332.7 91.5825 337.491Z" fill="#F0B8FF"/>
<path d="M1.43945 307.034L12.7486 307.221L6.75669 301.327L1.43945 307.034Z" fill="#AF3DCD"/>
<path d="M122.617 366.962L127.934 361.254L122.812 355.129L122.617 366.962Z" fill="#6F9E7D"/>
<path d="M122.617 366.962L127.934 361.254L128.902 303.359L123.585 309.067L122.617 366.962Z" fill="#638A6C"/>
<path d="M60.003 307.958L59.043 365.853L66.6405 365.979L67.6005 308.084L60.003 307.958Z" fill="#410A7F"/>
<path d="M60.1328 308.011L67.7314 308.135L69.7997 302.374L62.6095 302.259L60.1328 308.011Z" fill="#C3403F"/>
<path d="M40.8447 236.843L13.2129 289.43L124.169 347.732L151.801 295.146L40.8447 236.843Z" fill="#AF3DCD"/>
<path d="M90.4366 271.846C86.6271 269.846 82.3098 269.019 78.0307 269.472C73.7516 269.925 69.7028 271.636 66.3963 274.39C63.0898 277.143 60.674 280.816 59.4545 284.942C58.235 289.069 58.2666 293.464 59.5451 297.573C60.8236 301.682 63.2917 305.319 66.6374 308.025C69.983 310.731 74.0559 312.384 78.341 312.775C82.6262 313.167 86.9312 312.279 90.7116 310.223C94.492 308.168 97.5781 305.038 99.5797 301.229C100.91 298.7 101.729 295.933 101.989 293.087C102.25 290.241 101.947 287.372 101.098 284.643C100.249 281.914 98.8699 279.379 97.0406 277.184C95.2113 274.988 92.9672 273.174 90.4366 271.846Z" fill="#C7EBD5"/>
<path d="M33.3349 239.605L5.70312 292.192L116.659 350.494L144.291 297.908L33.3349 239.605Z" fill="black"/>
<path d="M33.3349 239.605L5.70312 292.192L116.659 350.494L144.291 297.908L33.3349 239.605Z" fill="url(#paint1_linear_117_10415)"/>
<path d="M90.9228 313.52C100.399 306.132 102.093 292.46 94.7046 282.984C87.3167 273.507 73.6453 271.814 64.1687 279.202C54.6921 286.59 52.9989 300.261 60.3868 309.738C67.7748 319.214 81.4462 320.908 90.9228 313.52Z" fill="#F0B8FF"/>
<path d="M14.957 290.639L54.7165 311.526C51.9976 307.431 50.4302 302.679 50.1789 297.77C49.9276 292.861 51.0015 287.974 53.288 283.623C55.5745 279.271 58.9895 275.615 63.1749 273.037C67.3604 270.459 72.1622 269.054 77.0772 268.97L37.3178 248.074L14.957 290.639Z" fill="#F0B8FF"/>
<path d="M101.808 309.12C99.5229 313.471 96.1094 317.128 91.9255 319.706C87.7415 322.284 82.9412 323.69 78.0273 323.776L112.647 341.947L135.008 299.338L100.388 281.167C103.114 285.269 104.685 290.03 104.935 294.949C105.185 299.868 104.105 304.763 101.808 309.12Z" fill="#F0B8FF"/>
<path d="M33.3066 239.57L43.5772 244.967L40.8076 236.792L33.3066 239.57Z" fill="#AF3DCD"/>
<path d="M116.625 350.451L124.135 347.681L122.28 339.701L116.625 350.451Z" fill="#6F9E7D"/>
<path d="M116.625 350.451L124.135 347.681L151.768 295.095L144.259 297.865L116.625 350.451Z" fill="#638A6C"/>
<path d="M86.6416 267.61L59.0098 320.196L65.9091 323.821L93.5409 271.235L86.6416 267.61Z" fill="#410A7F"/>
<path d="M86.6211 267.577L93.5184 271.207L98.0811 266.884L91.5477 263.449L86.6211 267.577Z" fill="#410A7F"/>
<g style="mix-blend-mode:multiply" opacity="0.3">
<path d="M116.622 350.451L23.6635 301.611L5.75 301.682L127.931 361.254L128.286 339.772L124.132 347.681L116.622 350.451Z" fill="#638A6C"/>
</g>
<path d="M143.788 310.319C143.734 310.289 143.675 310.271 143.614 310.265C143.552 310.259 143.491 310.266 143.432 310.284C143.373 310.302 143.319 310.332 143.272 310.371C143.225 310.411 143.186 310.459 143.158 310.514L123.806 347.344L116.66 350.007L6.29463 292.024L33.7152 239.845C33.7691 239.737 33.7789 239.611 33.7425 239.495C33.7062 239.38 33.6264 239.282 33.52 239.224C33.4659 239.195 33.4066 239.177 33.3454 239.171C33.2842 239.165 33.2225 239.171 33.1638 239.189C33.1051 239.207 33.0506 239.237 33.0035 239.277C32.9565 239.316 32.9177 239.365 32.8896 239.419L5.04297 292.414L116.589 351.001L124.463 348.099L143.992 310.949C144.034 310.87 144.052 310.781 144.042 310.692C144.033 310.604 143.997 310.52 143.939 310.452C143.902 310.395 143.849 310.349 143.788 310.319Z" fill="#410A7F"/>
<path d="M129.787 325.409C129.734 325.38 129.675 325.362 129.615 325.356C129.554 325.351 129.493 325.357 129.435 325.375C129.377 325.393 129.323 325.423 129.277 325.463C129.231 325.502 129.193 325.55 129.166 325.605L116.214 350.265C116.186 350.318 116.168 350.377 116.162 350.437C116.156 350.498 116.163 350.559 116.18 350.617C116.198 350.675 116.227 350.729 116.266 350.776C116.304 350.823 116.352 350.862 116.405 350.89C116.459 350.919 116.518 350.937 116.578 350.943C116.639 350.948 116.7 350.942 116.758 350.925C116.816 350.907 116.87 350.878 116.917 350.839C116.964 350.801 117.003 350.753 117.031 350.7L129.982 326.049C130.031 325.975 130.057 325.888 130.057 325.8C130.057 325.712 130.031 325.625 129.982 325.551C129.936 325.482 129.867 325.432 129.787 325.409Z" fill="black"/>
<path d="M19.5106 283.83C19.4358 283.739 19.3294 283.68 19.2127 283.663C19.096 283.647 18.9775 283.675 18.8804 283.741C18.8298 283.776 18.7867 283.82 18.7535 283.872C18.7203 283.923 18.6976 283.981 18.6868 284.041C18.6761 284.102 18.6775 284.163 18.6909 284.223C18.7043 284.283 18.7295 284.339 18.765 284.389L23.5939 291.296C23.6654 291.396 23.7733 291.464 23.8944 291.486C24.0155 291.507 24.1403 291.48 24.2419 291.411C24.2915 291.377 24.3336 291.332 24.3659 291.281C24.3982 291.23 24.4199 291.173 24.4298 291.114C24.4397 291.054 24.4377 290.993 24.4238 290.935C24.4098 290.876 24.3841 290.821 24.3484 290.772L19.5106 283.83Z" fill="#AF3DCD"/>
<path d="M22.2271 283.36C22.1522 283.269 22.046 283.209 21.9293 283.193C21.8126 283.176 21.6939 283.204 21.5968 283.271C21.4973 283.341 21.4293 283.447 21.4077 283.567C21.3861 283.686 21.4126 283.81 21.4814 283.91L26.3105 290.825C26.3455 290.875 26.3899 290.918 26.4414 290.951C26.4929 290.984 26.5504 291.006 26.6105 291.017C26.6707 291.028 26.7325 291.027 26.7921 291.013C26.8518 291 26.9084 290.976 26.9585 290.941C27.0086 290.906 27.0514 290.861 27.0843 290.81C27.1172 290.758 27.1397 290.701 27.1504 290.64C27.1611 290.58 27.1598 290.519 27.1467 290.459C27.1336 290.399 27.1089 290.343 27.0739 290.293L22.2271 283.36Z" fill="#AF3DCD"/>
<path d="M27.5987 349.634C27.5218 349.548 27.4155 349.494 27.3006 349.483C27.1858 349.471 27.0707 349.503 26.9782 349.572C26.8858 349.641 26.8226 349.742 26.8011 349.856C26.7795 349.969 26.8013 350.086 26.862 350.185L31.6909 357.1C31.7608 357.199 31.8671 357.267 31.9868 357.289C32.1064 357.31 32.2298 357.284 32.33 357.215C32.3806 357.18 32.4237 357.136 32.4569 357.085C32.4901 357.033 32.5128 356.976 32.5236 356.915C32.5343 356.855 32.533 356.793 32.5196 356.733C32.5062 356.674 32.4809 356.617 32.4454 356.567L27.5987 349.634Z" fill="black"/>
<path d="M30.3138 349.164C30.2415 349.07 30.1356 349.007 30.0182 348.989C29.9008 348.971 29.7809 348.998 29.6835 349.066C29.5833 349.138 29.5152 349.246 29.4936 349.367C29.4721 349.488 29.4987 349.613 29.5681 349.714L34.3971 356.629C34.4321 356.679 34.4765 356.722 34.528 356.755C34.5795 356.788 34.637 356.81 34.6972 356.821C34.7574 356.832 34.8191 356.831 34.8788 356.818C34.9385 356.804 34.995 356.78 35.0451 356.745C35.0952 356.71 35.138 356.665 35.1709 356.614C35.2039 356.562 35.2263 356.505 35.237 356.445C35.2477 356.384 35.2465 356.323 35.2333 356.263C35.2202 356.203 35.1955 356.147 35.1605 356.097L30.3138 349.164Z" fill="black"/>
<path d="M122.625 366.5L0.94089 364.468L1.89077 307.212L6.95053 301.788L23.6568 302.063C23.7255 302.083 23.7978 302.086 23.868 302.073C23.9383 302.06 24.0045 302.031 24.0616 301.988C24.1186 301.945 24.1648 301.889 24.1967 301.825C24.2285 301.761 24.2451 301.691 24.2451 301.619C24.2451 301.548 24.2285 301.478 24.1967 301.414C24.1648 301.35 24.1186 301.294 24.0616 301.251C24.0045 301.208 23.9383 301.179 23.868 301.166C23.7978 301.153 23.7255 301.156 23.6568 301.176L6.53335 300.892L0.958661 306.875V307.052L0 365.355L122.607 367.397C122.668 367.399 122.729 367.389 122.786 367.368C122.843 367.346 122.895 367.313 122.939 367.271C122.983 367.228 123.018 367.178 123.041 367.122C123.065 367.066 123.078 367.005 123.078 366.944C123.08 366.838 123.045 366.735 122.98 366.651C122.935 366.602 122.881 366.562 122.819 366.536C122.758 366.51 122.691 366.498 122.625 366.5Z" fill="#410A7F"/>
<path d="M126.451 168.618V339.053C126.451 351.587 137.467 361.76 151.049 361.76H437.167C450.758 361.76 461.765 351.587 461.765 339.053V168.618H126.451Z" fill="black"/>
<path d="M126.451 168.618V339.053C126.451 351.587 137.467 361.76 151.049 361.76H437.167C450.758 361.76 461.765 351.587 461.765 339.053V168.618H126.451Z" fill="url(#paint2_linear_117_10415)"/>
<path d="M378.117 117.886L305.389 73.8749C302.002 71.7769 298.096 70.6654 294.111 70.6654C290.127 70.6654 286.221 71.7769 282.833 73.8749L210.105 117.869L126.104 168.68L210.105 219.366L294.125 270.062L378.135 219.313L462.137 168.715L378.117 117.886Z" fill="#410A7F"/>
<g style="mix-blend-mode:soft-light">
<path d="M133.02 354.348C132.876 354.344 132.738 354.291 132.629 354.197C132.52 354.087 132.459 353.939 132.459 353.784C132.459 353.63 132.52 353.481 132.629 353.371L237.376 235.496C237.426 235.437 237.487 235.389 237.556 235.355C237.625 235.32 237.7 235.3 237.777 235.295C237.854 235.29 237.932 235.3 238.004 235.326C238.077 235.351 238.144 235.391 238.201 235.443C238.26 235.493 238.309 235.556 238.343 235.625C238.378 235.695 238.398 235.771 238.403 235.849C238.408 235.926 238.397 236.004 238.372 236.078C238.346 236.151 238.307 236.219 238.255 236.277L133.455 354.153C133.399 354.213 133.332 354.261 133.257 354.295C133.182 354.329 133.102 354.347 133.02 354.348Z" fill="white"/>
<path d="M455.197 354.348C455.115 354.347 455.034 354.329 454.959 354.295C454.884 354.261 454.817 354.213 454.762 354.153L350.015 236.277C349.963 236.219 349.923 236.151 349.898 236.078C349.872 236.004 349.861 235.926 349.866 235.849C349.871 235.771 349.892 235.695 349.926 235.625C349.961 235.556 350.009 235.493 350.068 235.443C350.125 235.391 350.192 235.351 350.265 235.326C350.338 235.3 350.415 235.29 350.492 235.295C350.569 235.3 350.644 235.32 350.713 235.355C350.782 235.389 350.844 235.437 350.894 235.496L455.685 353.371C455.757 353.457 455.803 353.562 455.818 353.673C455.833 353.784 455.817 353.897 455.77 353.999C455.724 354.101 455.65 354.188 455.556 354.25C455.462 354.312 455.353 354.346 455.241 354.348H455.197Z" fill="white"/>
</g>
<mask id="mask0_117_10415" style="mask-type:luminance" maskUnits="userSpaceOnUse" x="140" y="47" width="300" height="223">
<path d="M140.371 177.024L294.322 269.956L439.494 182.519V47.1468H152.461L140.371 177.024Z" fill="white"/>
</mask>
<g mask="url(#mask0_117_10415)">
<path d="M398.413 86.1605H163.709C161.689 86.2113 159.768 87.0471 158.355 88.4907C156.941 89.9342 156.145 91.8718 156.137 93.8923V284.363H432.082V120.354L398.413 86.1605Z" fill="#F0B8FF"/>
<path d="M431.957 120.354L401.155 120.62C400.772 120.623 400.394 120.545 400.044 120.392C399.694 120.239 399.38 120.015 399.122 119.733C398.872 119.433 398.686 119.086 398.576 118.712C398.466 118.338 398.435 117.945 398.483 117.558V86.4002L431.957 120.354Z" fill="#99B0F6"/>
<path d="M354.986 175.763C355.064 182.47 353.902 189.133 351.56 195.417C349.622 200.855 346.274 205.68 341.857 209.398C337.762 212.755 332.611 214.553 327.317 214.475C323.875 214.535 320.487 213.611 317.552 211.812C314.837 210.184 312.699 207.747 311.436 204.844H310.247C307.788 207.917 304.655 210.382 301.089 212.048C297.524 213.713 293.622 214.535 289.688 214.449C280.882 214.449 273.943 211.8 268.872 206.504C263.8 201.207 261.264 193.958 261.264 184.756C261.264 174.263 264.596 165.809 271.26 159.394C277.923 152.979 286.625 149.772 297.366 149.772C302.105 149.814 306.833 150.227 311.507 151.006C315.819 151.632 320.071 152.618 324.219 153.953L322.532 190.481C322.532 197.393 324.423 200.849 328.205 200.849C331.382 200.849 333.918 198.524 335.812 193.872C337.706 189.221 338.65 183.143 338.644 175.639C338.792 168.256 337.073 160.956 333.646 154.415C330.472 148.426 325.574 143.528 319.585 140.354C313.196 137.04 306.081 135.374 298.884 135.507C288.824 135.507 280.098 137.578 272.707 141.721C265.337 145.796 259.39 152.029 255.663 159.581C251.716 167.363 249.739 176.352 249.733 186.549C249.733 200.272 253.399 210.8 260.732 218.133C268.064 225.465 278.693 229.134 292.617 229.14C298.453 229.079 304.271 228.484 309.998 227.365C316.344 226.187 322.579 224.48 328.639 222.26V236.552C317.987 241.079 306.178 243.34 293.212 243.334C274.316 243.334 259.584 238.363 249.014 228.421C238.445 218.479 233.166 204.649 233.178 186.93C233.024 175.275 235.809 163.769 241.274 153.474C246.559 143.575 254.568 135.397 264.353 129.906C274.325 124.213 285.797 121.366 298.769 121.366C309.717 121.366 319.482 123.603 328.063 128.077C336.44 132.334 343.369 138.979 347.973 147.171C352.648 155.438 354.986 164.969 354.986 175.763ZM278.645 185.084C278.645 195.577 282.921 200.823 291.472 200.823C295.946 200.823 299.352 199.243 301.689 196.083C304.027 192.922 305.444 187.789 305.942 180.681L306.909 164.197C304.087 163.625 301.213 163.351 298.334 163.38C292.12 163.38 287.285 165.318 283.829 169.195C280.373 173.071 278.633 178.367 278.61 185.084H278.645Z" fill="#410A7F"/>
</g>
<path d="M520.812 207.835V231.315C520.812 233.223 519.649 234.777 518.211 234.777H432.603C431.404 234.777 430.365 235.86 430.073 237.44L428.537 245.615C428.333 246.707 427.205 246.796 426.904 245.749L424.924 238.833C424.815 238.249 424.519 237.715 424.08 237.313C423.642 236.911 423.084 236.663 422.492 236.605H418.808C417.37 236.605 416.207 235.052 416.207 233.135V208.989C416.207 207.09 417.361 205.536 418.79 205.519L518.166 204.391C519.596 204.356 520.812 205.909 520.812 207.835Z" fill="#410A7F"/>
<path d="M429.47 230.507C435.27 230.507 439.971 225.682 439.971 219.731C439.971 213.779 435.27 208.954 429.47 208.954C423.67 208.954 418.969 213.779 418.969 219.731C418.969 225.682 423.67 230.507 429.47 230.507Z" fill="#AF3DCD"/>
<path d="M433.269 215.336C433.269 217.272 431.707 219.358 429.772 219.358C427.837 219.358 426.266 217.272 426.266 215.336C426.404 214.508 426.832 213.756 427.474 213.213C428.115 212.67 428.927 212.372 429.767 212.372C430.607 212.372 431.42 212.67 432.061 213.213C432.703 213.756 433.131 214.508 433.269 215.336Z" fill="url(#paint3_linear_117_10415)"/>
<path d="M425.424 226.876H433.973C434.412 226.878 434.84 226.739 435.194 226.481C435.549 226.222 435.811 225.857 435.944 225.438L436.405 224C436.572 223.494 436.535 222.943 436.303 222.462C436.071 221.982 435.662 221.611 435.162 221.426C431.665 220.215 427.856 220.256 424.386 221.541C423.89 221.71 423.477 222.063 423.232 222.527C422.988 222.991 422.931 223.531 423.072 224.036L423.418 225.35C423.54 225.788 423.802 226.175 424.165 226.45C424.527 226.726 424.969 226.876 425.424 226.876Z" fill="url(#paint4_linear_117_10415)"/>
<path d="M512.637 222.544C512.631 222.817 512.572 223.086 512.462 223.336C512.353 223.586 512.195 223.812 511.998 224C511.801 224.189 511.568 224.337 511.314 224.436C511.06 224.535 510.788 224.583 510.516 224.577H448.049C447.776 224.583 447.505 224.535 447.251 224.436C446.997 224.337 446.764 224.189 446.567 224C446.37 223.812 446.212 223.586 446.103 223.336C445.993 223.086 445.934 222.817 445.928 222.544C445.939 221.993 446.169 221.468 446.567 221.085C446.964 220.703 447.497 220.493 448.049 220.503H510.516C511.067 220.493 511.6 220.703 511.998 221.085C512.396 221.468 512.626 221.993 512.637 222.544Z" fill="#AF3DCD"/>
<path d="M483.062 229.069C483.063 229.312 483.016 229.553 482.924 229.778C482.831 230.003 482.696 230.208 482.524 230.38C482.352 230.553 482.149 230.689 481.924 230.783C481.699 230.876 481.458 230.924 481.215 230.924H448.46C448.217 230.924 447.976 230.876 447.751 230.783C447.526 230.689 447.323 230.553 447.151 230.38C446.979 230.208 446.844 230.003 446.751 229.778C446.659 229.553 446.612 229.312 446.613 229.069C446.613 228.826 446.661 228.586 446.754 228.362C446.847 228.138 446.983 227.935 447.154 227.763C447.325 227.592 447.529 227.456 447.753 227.363C447.977 227.27 448.217 227.223 448.46 227.223H481.215C481.458 227.223 481.698 227.27 481.922 227.363C482.146 227.456 482.349 227.592 482.521 227.763C482.692 227.935 482.828 228.138 482.921 228.362C483.014 228.586 483.062 228.826 483.062 229.069Z" fill="#AF3DCD"/>
<path d="M512.676 229.069C512.677 229.312 512.63 229.553 512.538 229.778C512.445 230.003 512.31 230.208 512.138 230.38C511.966 230.553 511.762 230.689 511.538 230.783C511.313 230.876 511.073 230.924 510.829 230.924H487.19C486.947 230.924 486.706 230.876 486.482 230.783C486.257 230.689 486.053 230.553 485.881 230.38C485.71 230.208 485.574 230.003 485.482 229.778C485.39 229.553 485.343 229.312 485.344 229.069C485.344 228.826 485.392 228.586 485.484 228.362C485.577 228.138 485.713 227.935 485.885 227.763C486.056 227.592 486.26 227.456 486.484 227.363C486.708 227.27 486.948 227.223 487.19 227.223H510.829C511.072 227.223 511.312 227.27 511.536 227.363C511.76 227.456 511.963 227.592 512.135 227.763C512.306 227.935 512.442 228.138 512.535 228.362C512.628 228.586 512.676 228.826 512.676 229.069Z" fill="#AF3DCD"/>
<path d="M479.891 209.851H448.361C446.924 209.851 445.76 211.015 445.76 212.451V212.665C445.76 214.101 446.924 215.265 448.361 215.265H479.891C481.328 215.265 482.492 214.101 482.492 212.665V212.451C482.492 211.015 481.328 209.851 479.891 209.851Z" fill="#AF3DCD"/>
<path d="M183.049 244.905C183.049 265.553 182.871 336.789 181.638 362.009C181.504 364.672 179.631 366.784 177.341 366.82C166.032 367.006 124.577 367.184 106.113 365.87C102.261 365.595 99.287 361.875 99.3048 357.366C99.4024 335.689 99.8995 274.731 102.536 246.858C102.847 243.52 105.155 240.902 108.013 240.644C120.352 239.473 162.037 236.872 177.98 238.443C180.856 238.718 183.058 241.523 183.049 244.905Z" fill="#410A7F"/>
<path d="M177.839 251.119C178.07 267.799 178.727 323.27 177.706 343.758C177.546 346.749 175.478 349.128 172.913 349.244C162.367 349.732 126.398 350.531 110.979 348.738C108.2 348.418 106.079 345.737 105.999 342.471C105.591 325.454 104.49 273.79 105.52 253.542C105.688 250.311 107.89 247.719 110.65 247.488C122.066 246.539 160.361 244.541 173.427 245.669C175.922 245.882 177.839 248.234 177.839 251.119Z" fill="#F0B8FF"/>
<path d="M150.853 241.781C150.869 242.065 150.776 242.344 150.593 242.561C150.41 242.779 150.151 242.919 149.868 242.952C147.205 243.059 139.66 243.352 136.295 243.503C136.126 243.493 135.961 243.446 135.813 243.364C135.665 243.282 135.537 243.168 135.438 243.03C135.34 242.891 135.275 242.733 135.246 242.566C135.218 242.399 135.228 242.227 135.275 242.065V241.94C135.303 241.709 135.404 241.494 135.564 241.324C135.724 241.155 135.933 241.041 136.162 240.999C140.709 240.574 145.277 240.432 149.841 240.573C149.987 240.586 150.129 240.627 150.259 240.694C150.389 240.762 150.505 240.854 150.599 240.966C150.693 241.078 150.764 241.208 150.808 241.348C150.851 241.488 150.867 241.635 150.853 241.781Z" fill="url(#paint5_linear_117_10415)"/>
<path d="M141.72 324.122C156.354 324.122 168.217 312.259 168.217 297.625C168.217 282.991 156.354 271.127 141.72 271.127C127.086 271.127 115.223 282.991 115.223 297.625C115.223 312.259 127.086 324.122 141.72 324.122Z" fill="black"/>
<path d="M141.72 324.122C156.354 324.122 168.217 312.259 168.217 297.625C168.217 282.991 156.354 271.127 141.72 271.127C127.086 271.127 115.223 282.991 115.223 297.625C115.223 312.259 127.086 324.122 141.72 324.122Z" fill="url(#paint6_linear_117_10415)"/>
<path d="M158.027 304.549C157.829 303.85 157.473 303.207 156.987 302.668C156.5 302.129 155.897 301.71 155.222 301.442L153.313 300.687C152.566 300.392 151.743 300.35 150.97 300.568C150.197 300.787 149.517 301.252 149.035 301.895L147.339 304.167C144.267 304.145 141.289 303.105 138.871 301.211C136.511 299.514 134.731 297.13 133.775 294.385C133.765 294.372 133.76 294.357 133.76 294.34C133.76 294.324 133.765 294.309 133.775 294.296C133.775 294.296 133.838 294.296 133.873 294.296L135.4 292.254C135.954 291.515 136.246 290.612 136.232 289.689C136.217 288.765 135.897 287.872 135.32 287.15L134.06 285.552C133.605 284.981 133.025 284.521 132.364 284.208C131.704 283.896 130.98 283.74 130.25 283.751C129.519 283.762 128.801 283.94 128.15 284.273C127.5 284.605 126.934 285.082 126.497 285.668C126.035 286.283 125.692 286.978 125.485 287.718C124.082 292.689 128.085 300.19 135.462 305.721C142.839 311.251 151.156 312.955 155.533 310.212C156.189 309.807 156.764 309.283 157.228 308.668C157.669 308.088 157.97 307.416 158.108 306.701C158.247 305.987 158.219 305.251 158.027 304.549Z" fill="white"/>
<path d="M110.178 362.195C108.028 362.195 105.964 361.345 104.438 359.83C102.911 358.315 102.046 356.259 102.029 354.108V340.278C102.029 340.203 102.059 340.131 102.113 340.077C102.166 340.024 102.238 339.994 102.313 339.994C102.389 339.994 102.461 340.024 102.514 340.077C102.567 340.131 102.597 340.203 102.597 340.278V354.108C102.616 356.104 103.422 358.012 104.84 359.417C106.258 360.821 108.173 361.609 110.169 361.609C110.248 361.609 110.323 361.64 110.38 361.694C110.436 361.749 110.469 361.824 110.471 361.902C110.472 361.941 110.466 361.98 110.451 362.016C110.437 362.052 110.416 362.085 110.388 362.112C110.361 362.139 110.328 362.161 110.292 362.175C110.256 362.19 110.217 362.196 110.178 362.195Z" fill="url(#paint7_linear_117_10415)"/>
<path d="M437.762 344.335H143.654V348.454H437.762V344.335Z" fill="#3D4367"/>
<path d="M169.109 203.976C179.039 189.226 175.132 169.219 160.382 159.288C145.632 149.358 125.624 153.265 115.694 168.015C105.763 182.765 109.67 202.773 124.421 212.703C139.171 222.634 159.178 218.727 169.109 203.976Z" fill="#410A7F"/>
<path d="M143.176 214.056C158.55 213.653 170.687 200.863 170.284 185.489C169.881 170.115 157.092 157.979 141.718 158.381C126.344 158.784 114.207 171.573 114.61 186.947C115.012 202.321 127.802 214.458 143.176 214.056Z" fill="black"/>
<path d="M143.176 214.056C158.55 213.653 170.687 200.863 170.284 185.489C169.881 170.115 157.092 157.979 141.718 158.381C126.344 158.784 114.207 171.573 114.61 186.947C115.012 202.321 127.802 214.458 143.176 214.056Z" fill="url(#paint8_linear_117_10415)"/>
<path d="M152.514 186.238C151.218 185.019 148.943 183.963 145.688 183.069C145.005 182.883 144.064 182.643 142.874 182.35C138.998 181.391 136.95 180.101 136.731 178.48C136.647 178.004 136.676 177.516 136.814 177.053C136.953 176.591 137.198 176.167 137.53 175.817C138.337 175.042 139.389 174.575 140.504 174.494C141.713 174.29 142.956 174.474 144.055 175.018C145.214 175.702 146.18 176.67 146.86 177.832L152.062 175.107C151.063 173.065 149.414 171.413 147.375 170.411C146.004 169.779 144.517 169.438 143.007 169.408L142.448 165.182L137.122 165.883L137.681 170.127C135.926 170.652 134.341 171.635 133.092 172.976C132.256 173.854 131.636 174.914 131.278 176.072C130.921 177.23 130.837 178.455 131.033 179.651C131.193 181.077 131.713 182.439 132.542 183.611C133.357 184.743 134.456 185.64 135.728 186.211C137.971 187.126 140.299 187.813 142.679 188.262C143.158 188.36 143.567 188.448 143.789 188.511C145.201 188.749 146.555 189.259 147.774 190.011C148.153 190.284 148.47 190.634 148.706 191.038C148.941 191.441 149.09 191.89 149.141 192.354C149.237 192.924 149.196 193.508 149.02 194.057C148.843 194.607 148.538 195.107 148.129 195.514C147.126 196.444 145.837 197.008 144.472 197.112C143.148 197.323 141.791 197.083 140.619 196.429C139.27 195.58 138.133 194.432 137.3 193.073L132.151 196.233C133.104 198.035 134.511 199.556 136.233 200.646C137.955 201.736 139.933 202.357 141.969 202.447L142.572 207.001L147.899 206.291L147.322 201.932C149.477 201.463 151.436 200.341 152.932 198.719C153.787 197.716 154.409 196.536 154.751 195.263C155.094 193.99 155.148 192.657 154.911 191.36C154.738 189.424 153.89 187.611 152.514 186.238Z" fill="white"/>
<path d="M146.69 217.831C142.522 218.383 138.287 218.11 134.225 217.025C130.164 215.941 126.355 214.067 123.018 211.511C119.68 208.955 116.879 205.767 114.773 202.128C112.668 198.489 111.3 194.471 110.748 190.304C110.195 186.136 110.469 181.901 111.553 177.839C112.637 173.777 114.511 169.969 117.067 166.632C119.623 163.294 122.812 160.493 126.451 158.387C130.089 156.282 134.107 154.914 138.275 154.361C138.323 154.355 138.366 154.33 138.396 154.292C138.426 154.254 138.44 154.205 138.434 154.157C138.431 154.133 138.423 154.109 138.411 154.088C138.398 154.066 138.381 154.047 138.362 154.033C138.342 154.018 138.319 154.007 138.295 154.001C138.271 153.995 138.246 153.994 138.221 153.997C134.006 154.557 129.941 155.941 126.26 158.072C122.58 160.202 119.354 163.036 116.769 166.413C114.184 169.79 112.289 173.643 111.192 177.752C110.096 181.861 109.82 186.146 110.379 190.361C110.939 194.577 112.323 198.642 114.453 202.322C116.584 206.003 119.418 209.228 122.795 211.814C126.172 214.399 130.024 216.294 134.134 217.391C138.243 218.487 142.527 218.763 146.743 218.204C146.793 218.197 146.837 218.17 146.867 218.13C146.897 218.09 146.91 218.04 146.903 217.991C146.896 217.941 146.869 217.897 146.83 217.867C146.79 217.837 146.739 217.824 146.69 217.831Z" fill="black"/>
<path d="M146.69 217.831C142.522 218.383 138.287 218.11 134.225 217.025C130.164 215.941 126.355 214.067 123.018 211.511C119.68 208.955 116.879 205.767 114.773 202.128C112.668 198.489 111.3 194.471 110.748 190.304C110.195 186.136 110.469 181.901 111.553 177.839C112.637 173.777 114.511 169.969 117.067 166.632C119.623 163.294 122.812 160.493 126.451 158.387C130.089 156.282 134.107 154.914 138.275 154.361C138.323 154.355 138.366 154.33 138.396 154.292C138.426 154.254 138.44 154.205 138.434 154.157C138.431 154.133 138.423 154.109 138.411 154.088C138.398 154.066 138.381 154.047 138.362 154.033C138.342 154.018 138.319 154.007 138.295 154.001C138.271 153.995 138.246 153.994 138.221 153.997C134.006 154.557 129.941 155.941 126.26 158.072C122.58 160.202 119.354 163.036 116.769 166.413C114.184 169.79 112.289 173.643 111.192 177.752C110.096 181.861 109.82 186.146 110.379 190.361C110.939 194.577 112.323 198.642 114.453 202.322C116.584 206.003 119.418 209.228 122.795 211.814C126.172 214.399 130.024 216.294 134.134 217.391C138.243 218.487 142.527 218.763 146.743 218.204C146.793 218.197 146.837 218.17 146.867 218.13C146.897 218.09 146.91 218.04 146.903 217.991C146.896 217.941 146.869 217.897 146.83 217.867C146.79 217.837 146.739 217.824 146.69 217.831Z" fill="url(#paint9_linear_117_10415)"/>
<path d="M138.781 158.312C138.754 158.305 138.726 158.306 138.699 158.312C138.672 158.318 138.646 158.331 138.624 158.348C138.603 158.366 138.585 158.388 138.573 158.413C138.561 158.438 138.555 158.466 138.555 158.494C138.555 158.521 138.561 158.549 138.573 158.574C138.585 158.599 138.603 158.621 138.624 158.639C138.646 158.656 138.672 158.669 138.699 158.675C138.726 158.681 138.754 158.682 138.781 158.675C146.054 157.71 153.412 159.673 159.237 164.133C165.062 168.593 168.876 175.184 169.842 182.457C170.807 189.729 168.844 197.087 164.384 202.912C159.924 208.737 153.333 212.551 146.06 213.517C146.012 213.525 145.968 213.552 145.939 213.592C145.909 213.631 145.895 213.681 145.901 213.73C145.905 213.762 145.918 213.792 145.939 213.817C145.959 213.842 145.986 213.861 146.016 213.872C146.045 213.88 146.076 213.88 146.105 213.872C149.778 213.416 153.325 212.238 156.54 210.405C159.755 208.572 162.576 206.12 164.839 203.191C167.102 200.262 168.762 196.914 169.724 193.34C170.687 189.766 170.932 186.037 170.445 182.368C169.959 178.699 168.751 175.162 166.89 171.962C165.03 168.762 162.555 165.963 159.607 163.725C156.659 161.486 153.297 159.854 149.715 158.922C146.133 157.99 142.402 157.776 138.737 158.294L138.781 158.312Z" fill="black"/>
<path d="M138.781 158.312C138.754 158.305 138.726 158.306 138.699 158.312C138.672 158.318 138.646 158.331 138.624 158.348C138.603 158.366 138.585 158.388 138.573 158.413C138.561 158.438 138.555 158.466 138.555 158.494C138.555 158.521 138.561 158.549 138.573 158.574C138.585 158.599 138.603 158.621 138.624 158.639C138.646 158.656 138.672 158.669 138.699 158.675C138.726 158.681 138.754 158.682 138.781 158.675C146.054 157.71 153.412 159.673 159.237 164.133C165.062 168.593 168.876 175.184 169.842 182.457C170.807 189.729 168.844 197.087 164.384 202.912C159.924 208.737 153.333 212.551 146.06 213.517C146.012 213.525 145.968 213.552 145.939 213.592C145.909 213.631 145.895 213.681 145.901 213.73C145.905 213.762 145.918 213.792 145.939 213.817C145.959 213.842 145.986 213.861 146.016 213.872C146.045 213.88 146.076 213.88 146.105 213.872C149.778 213.416 153.325 212.238 156.54 210.405C159.755 208.572 162.576 206.12 164.839 203.191C167.102 200.262 168.762 196.914 169.724 193.34C170.687 189.766 170.932 186.037 170.445 182.368C169.959 178.699 168.751 175.162 166.89 171.962C165.03 168.762 162.555 165.963 159.607 163.725C156.659 161.486 153.297 159.854 149.715 158.922C146.133 157.99 142.402 157.776 138.737 158.294L138.781 158.312Z" fill="url(#paint10_linear_117_10415)"/>
<path d="M127.791 164.073C122.855 166.638 121.142 172.266 121.124 172.328C121.112 172.372 121.116 172.418 121.136 172.459C121.155 172.5 121.189 172.532 121.231 172.55C121.254 172.558 121.279 172.561 121.303 172.559C121.328 172.558 121.352 172.55 121.373 172.539C121.395 172.527 121.414 172.511 121.429 172.492C121.445 172.472 121.455 172.45 121.461 172.426C121.461 172.372 123.148 166.887 127.942 164.437C127.964 164.426 127.984 164.412 128 164.393C128.016 164.375 128.028 164.353 128.036 164.33C128.043 164.306 128.046 164.282 128.044 164.257C128.041 164.233 128.034 164.209 128.021 164.188C128.005 164.143 127.972 164.105 127.929 164.084C127.886 164.062 127.837 164.058 127.791 164.073Z" fill="#231822"/>
<path d="M130.58 165.768C125.644 168.334 123.931 173.961 123.913 174.024C123.901 174.067 123.905 174.114 123.925 174.155C123.944 174.195 123.978 174.228 124.02 174.246C124.043 174.254 124.068 174.257 124.092 174.255C124.117 174.253 124.141 174.246 124.163 174.234C124.184 174.223 124.203 174.206 124.218 174.187C124.234 174.168 124.245 174.145 124.251 174.121C124.251 174.068 125.937 168.582 130.731 166.132C130.753 166.122 130.773 166.107 130.789 166.089C130.805 166.07 130.818 166.049 130.825 166.025C130.833 166.002 130.835 165.977 130.833 165.953C130.83 165.929 130.823 165.905 130.811 165.884C130.794 165.838 130.761 165.801 130.718 165.779C130.675 165.758 130.626 165.754 130.58 165.768Z" fill="#231822"/>
<path d="M177.733 182.164C175.274 190.073 167.4 190.827 167.4 190.827C167.4 190.827 174.449 194.378 173.836 202.669C176.295 194.76 184.169 194.005 184.169 194.005C184.169 194.005 177.121 190.428 177.733 182.164Z" fill="white"/>
<path d="M95.3301 221.435C102.282 210.868 99.3511 196.666 88.7842 189.714C78.2172 182.763 64.0156 185.693 57.0638 196.26C50.1121 206.827 53.0428 221.029 63.6097 227.981C74.1766 234.932 88.3783 232.002 95.3301 221.435Z" fill="#410A7F"/>
<path d="M88.8594 223.951C97.2467 216.923 98.3488 204.427 91.321 196.039C84.2931 187.652 71.7967 186.55 63.4093 193.578C55.022 200.606 53.9199 213.102 60.9477 221.49C67.9755 229.877 80.472 230.979 88.8594 223.951Z" fill="black"/>
<path d="M88.8594 223.951C97.2467 216.923 98.3488 204.427 91.321 196.039C84.2931 187.652 71.7967 186.55 63.4093 193.578C55.022 200.606 53.9199 213.102 60.9477 221.49C67.9755 229.877 80.472 230.979 88.8594 223.951Z" fill="url(#paint11_linear_117_10415)"/>
<path d="M76.5713 200.672C77.3368 200.465 78.1508 200.534 78.8703 200.867C79.689 201.15 80.3954 201.689 80.8854 202.403C81.3705 203.228 81.6392 204.162 81.6666 205.119L85.8475 205.217C85.9271 203.599 85.4682 202.001 84.5427 200.672C83.9041 199.809 83.0942 199.086 82.1636 198.55L83.2732 195.727L79.7225 194.334L78.6129 197.166C77.3367 196.893 76.0112 196.96 74.7692 197.361C73.9523 197.626 73.2071 198.075 72.5914 198.674C71.9757 199.272 71.506 200.005 71.2185 200.814C70.827 201.756 70.6834 202.783 70.8013 203.797C70.9205 204.782 71.2971 205.719 71.8932 206.513C72.9711 207.856 74.1848 209.085 75.5149 210.179C75.7812 210.41 75.9854 210.587 76.1185 210.72C76.9204 211.35 77.5901 212.131 78.0892 213.02C78.2251 213.323 78.2954 213.651 78.2954 213.983C78.2954 214.315 78.2251 214.643 78.0892 214.946C77.9548 215.333 77.73 215.682 77.4336 215.964C77.1372 216.247 76.7776 216.455 76.3848 216.57C75.4468 216.762 74.4733 216.674 73.585 216.317C72.6966 215.96 71.9324 215.351 71.3871 214.564C70.8503 213.565 70.5469 212.457 70.4994 211.324L66.2119 211.519C66.1894 212.967 66.5452 214.395 67.2443 215.662C67.9434 216.929 68.9615 217.992 70.1976 218.745L69.0082 221.79L72.5589 223.184L73.704 220.263C75.2067 220.718 76.8142 220.694 78.3022 220.192C79.1814 219.868 79.976 219.349 80.6262 218.674C81.2765 217.999 81.7656 217.186 82.0571 216.295C82.6225 215.036 82.7232 213.618 82.3412 212.292C81.6292 210.632 80.5484 209.157 79.181 207.978C78.8171 207.622 78.2934 207.152 77.6809 206.557C75.5859 204.622 74.7603 203.122 75.1864 202.039C75.2921 201.717 75.4728 201.426 75.7136 201.188C75.9544 200.95 76.2485 200.773 76.5713 200.672Z" fill="white"/>
<path d="M84.5068 187.303C81.675 186.13 78.6375 185.534 75.5724 185.55C72.5072 185.566 69.4761 186.194 66.6565 187.396C63.8369 188.598 61.2856 190.351 59.1521 192.552C57.0186 194.753 55.3458 197.357 54.2317 200.213C53.1176 203.068 52.5846 206.117 52.664 209.182C52.7433 212.246 53.4334 215.263 54.6938 218.057C55.9542 220.851 57.7595 223.366 60.0041 225.453C62.2486 227.541 64.8871 229.159 67.7651 230.214C67.7982 230.226 67.8348 230.226 67.8676 230.213C67.9005 230.2 67.9272 230.175 67.9426 230.143C67.9544 230.109 67.9528 230.071 67.938 230.038C67.9231 230.005 67.8962 229.979 67.8628 229.965C65.0234 228.916 62.4217 227.312 60.2096 225.245C57.9975 223.179 56.2195 220.693 54.9794 217.931C53.7393 215.17 53.062 212.189 52.9871 209.163C52.9122 206.137 53.4413 203.126 54.5433 200.307C55.6452 197.488 57.2981 194.917 59.4053 192.743C61.5124 190.57 64.0315 188.839 66.8155 187.65C69.5994 186.462 72.5923 185.84 75.6193 185.822C78.6462 185.804 81.6465 186.389 84.4448 187.543C84.4604 187.55 84.4773 187.554 84.4945 187.554C84.5117 187.555 84.5288 187.551 84.5447 187.545C84.5605 187.538 84.5748 187.528 84.5866 187.515C84.5984 187.503 84.6076 187.488 84.6134 187.472C84.6203 187.454 84.6231 187.434 84.6212 187.415C84.6193 187.396 84.6129 187.377 84.6025 187.361C84.5922 187.345 84.5781 187.331 84.5615 187.321C84.5449 187.311 84.5262 187.305 84.5068 187.303Z" fill="black"/>
<path d="M84.5068 187.303C81.675 186.13 78.6375 185.534 75.5724 185.55C72.5072 185.566 69.4761 186.194 66.6565 187.396C63.8369 188.598 61.2856 190.351 59.1521 192.552C57.0186 194.753 55.3458 197.357 54.2317 200.213C53.1176 203.068 52.5846 206.117 52.664 209.182C52.7433 212.246 53.4334 215.263 54.6938 218.057C55.9542 220.851 57.7595 223.366 60.0041 225.453C62.2486 227.541 64.8871 229.159 67.7651 230.214C67.7982 230.226 67.8348 230.226 67.8676 230.213C67.9005 230.2 67.9272 230.175 67.9426 230.143C67.9544 230.109 67.9528 230.071 67.938 230.038C67.9231 230.005 67.8962 229.979 67.8628 229.965C65.0234 228.916 62.4217 227.312 60.2096 225.245C57.9975 223.179 56.2195 220.693 54.9794 217.931C53.7393 215.17 53.062 212.189 52.9871 209.163C52.9122 206.137 53.4413 203.126 54.5433 200.307C55.6452 197.488 57.2981 194.917 59.4053 192.743C61.5124 190.57 64.0315 188.839 66.8155 187.65C69.5994 186.462 72.5923 185.84 75.6193 185.822C78.6462 185.804 81.6465 186.389 84.4448 187.543C84.4604 187.55 84.4773 187.554 84.4945 187.554C84.5117 187.555 84.5288 187.551 84.5447 187.545C84.5605 187.538 84.5748 187.528 84.5866 187.515C84.5984 187.503 84.6076 187.488 84.6134 187.472C84.6203 187.454 84.6231 187.434 84.6212 187.415C84.6193 187.396 84.6129 187.377 84.6025 187.361C84.5922 187.345 84.5781 187.331 84.5615 187.321C84.5449 187.311 84.5262 187.305 84.5068 187.303Z" fill="url(#paint12_linear_117_10415)"/>
<path d="M83.3874 190.188C83.3711 190.181 83.3536 190.177 83.3357 190.177C83.3179 190.176 83.3002 190.18 83.2836 190.186C83.267 190.193 83.2521 190.203 83.2394 190.215C83.2267 190.228 83.2167 190.243 83.2099 190.259C83.2029 190.276 83.1994 190.293 83.1997 190.311C83.2 190.328 83.2042 190.346 83.2118 190.362C83.2193 190.378 83.2302 190.392 83.2436 190.403C83.2571 190.415 83.2728 190.423 83.2898 190.428C88.1514 192.328 92.0592 196.081 94.1534 200.862C96.2476 205.643 96.3567 211.061 94.4568 215.922C92.5569 220.784 88.8036 224.692 84.0225 226.786C79.2414 228.88 73.8241 228.989 68.9625 227.089C68.9469 227.082 68.93 227.078 68.9128 227.078C68.8956 227.078 68.8785 227.081 68.8626 227.088C68.8468 227.095 68.8325 227.104 68.8207 227.117C68.8089 227.129 68.7997 227.144 68.7939 227.16C68.783 227.181 68.7773 227.204 68.7773 227.227C68.7773 227.25 68.783 227.273 68.7939 227.294H68.8471C73.7723 229.219 79.2608 229.11 84.1052 226.989C88.9496 224.868 92.7529 220.91 94.6787 215.984C96.6045 211.059 96.495 205.571 94.3741 200.726C92.2533 195.882 88.2948 192.079 83.3696 190.153L83.3874 190.188Z" fill="#231822"/>
<path d="M90.0191 220.272C90.9182 221.712 91.3898 223.377 91.3788 225.075C91.3678 226.772 90.8747 228.431 89.957 229.859C91.1892 228.691 92.7279 227.898 94.3938 227.571C96.0598 227.244 97.7843 227.397 99.3665 228.013C98.4674 226.573 97.9959 224.907 98.0069 223.21C98.0179 221.513 98.511 219.854 99.4287 218.426C98.1965 219.593 96.6577 220.387 94.9918 220.714C93.3258 221.041 91.6013 220.888 90.0191 220.272Z" fill="white"/>
<path d="M259.755 112.764L260.119 112.853L260.287 112.134L259.923 112.054C258.585 111.735 257.222 111.533 255.849 111.451H255.485L255.432 112.187H255.804C257.135 112.27 258.456 112.463 259.755 112.764Z" fill="#432A3F"/>
<path d="M255.706 126.133C256.067 124.844 256.515 123.58 257.047 122.351L257.189 122.014L256.514 121.721L256.363 122.067C255.821 123.325 255.364 124.618 254.996 125.938L254.898 126.293L255.609 126.488L255.706 126.133Z" fill="#432A3F"/>
<path d="M263.634 112.312C264.521 111.335 265.498 110.385 266.501 109.489L266.776 109.24L266.288 108.69L266.013 108.939C264.992 109.826 264.007 110.82 263.092 111.806L262.844 112.081L263.385 112.578L263.634 112.312Z" fill="#432A3F"/>
<path d="M236.178 116.351C234.989 117.016 233.817 117.744 232.698 118.517L232.396 118.73L232.814 119.333L233.124 119.129C234.226 118.36 235.367 117.649 236.542 116.999L236.862 116.821L236.506 116.173L236.178 116.351Z" fill="#432A3F"/>
<path d="M243.697 113.093C242.409 113.501 241.113 113.981 239.853 114.531L239.516 114.682L239.809 115.356L240.146 115.214C241.378 114.676 242.637 114.202 243.919 113.794L244.274 113.688L244.052 112.977L243.697 113.093Z" fill="#432A3F"/>
<path d="M251.738 111.477C250.37 111.589 249.009 111.782 247.664 112.054L247.309 112.125L247.451 112.844L247.815 112.773C249.128 112.507 250.456 112.32 251.791 112.214H252.155L252.102 111.477H251.738Z" fill="#432A3F"/>
<path d="M215.824 150.047C215.673 151.379 215.549 152.71 215.469 154.122V154.486H216.205V154.122C216.294 152.764 216.41 151.405 216.569 150.092L216.614 149.719L215.877 149.639L215.824 150.047Z" fill="#432A3F"/>
<path d="M254.988 129.701L254.251 129.622V129.986C254.096 131.36 254.096 132.748 254.251 134.122V134.486L254.979 134.406V134.042C254.828 132.721 254.828 131.387 254.979 130.065L254.988 129.701Z" fill="#432A3F"/>
<path d="M216.063 158.205V157.841H215.326V158.214C215.326 159.572 215.326 160.948 215.406 162.297V162.67H216.143V162.306C216.081 160.921 216.054 159.554 216.063 158.205Z" fill="#432A3F"/>
<path d="M219.958 134.264C219.417 135.489 218.92 136.767 218.467 138.081L218.352 138.427L219.053 138.667L219.168 138.321C219.612 137.025 220.056 135.764 220.633 134.557L220.784 134.22L220.109 133.927L219.958 134.264Z" fill="#432A3F"/>
<path d="M223.999 127.136C223.208 128.251 222.476 129.406 221.807 130.598L221.629 130.918L222.268 131.282L222.455 130.962C223.108 129.79 223.825 128.655 224.603 127.562L224.816 127.26L224.212 126.834L223.999 127.136Z" fill="#432A3F"/>
<path d="M229.466 121.047C228.436 121.949 227.461 122.913 226.545 123.932L226.297 124.198L226.847 124.695L227.096 124.42C227.992 123.426 228.943 122.484 229.945 121.597L230.229 121.348L229.741 120.798L229.466 121.047Z" fill="#432A3F"/>
<path d="M217.304 142.005C216.976 143.292 216.683 144.668 216.417 145.999L216.346 146.363L217.074 146.496L217.136 146.133C217.384 144.792 217.677 143.469 218.023 142.191L218.112 141.827L217.393 141.65L217.304 142.005Z" fill="#432A3F"/>
<path d="M280.304 101.145C278.973 101.535 277.641 101.988 276.434 102.476L276.088 102.618L276.363 103.302L276.709 103.16C277.916 102.68 279.204 102.272 280.517 101.855L280.872 101.748L280.659 101.038L280.304 101.145Z" fill="#432A3F"/>
<path d="M256.007 137.797L255.839 137.469L255.182 137.815L255.359 138.135C255.989 139.441 257.053 140.488 258.368 141.099L258.706 141.25L259.008 140.576L258.67 140.425C257.508 139.879 256.568 138.952 256.007 137.797Z" fill="#432A3F"/>
<path d="M272.704 104.207C271.499 104.854 270.333 105.574 269.216 106.364L268.914 106.577L269.34 107.181L269.642 106.968C270.738 106.196 271.879 105.49 273.06 104.855L273.379 104.686L273.033 104.038L272.704 104.207Z" fill="#432A3F"/>
<path d="M300.551 99.0497H300.188V99.7865H300.56C301.901 99.8397 303.223 99.9374 304.599 100.062H304.963L305.034 99.3337H304.661C303.277 99.1828 301.91 99.0497 300.551 99.0497Z" fill="#432A3F"/>
<path d="M272.697 126.195L271.969 126.284V126.648C272.121 127.968 272.136 129.301 272.013 130.625V130.997L272.75 131.06V130.696C272.874 129.319 272.856 127.932 272.697 126.559V126.195Z" fill="#432A3F"/>
<path d="M296.469 98.9521C295.093 98.9521 293.717 99.0142 292.386 99.103H292.021V99.8309H292.394C293.708 99.7421 295.058 99.6888 296.433 99.68H296.806V98.9432L296.469 98.9521Z" fill="#432A3F"/>
<path d="M288.32 99.4935C286.944 99.6711 285.657 99.893 284.281 100.168L283.926 100.239L284.068 100.958L284.432 100.887C285.737 100.621 287.095 100.399 288.418 100.221L288.781 100.177L288.684 99.4492L288.32 99.4935Z" fill="#432A3F"/>
<path d="M260.472 114.975C259.658 116.071 258.905 117.212 258.218 118.392L258.031 118.712L258.67 119.085L258.857 118.765C259.526 117.604 260.264 116.483 261.067 115.41L261.289 115.117L260.694 114.673L260.472 114.975Z" fill="#432A3F"/>
<path d="M270.583 121.304C270.787 121.774 270.973 122.263 271.142 122.76L271.257 123.115L271.959 122.875L271.834 122.529C271.666 122.005 271.47 121.499 271.257 121.011C270.918 120.237 270.518 119.492 270.059 118.783L269.855 118.472L269.242 118.881L269.437 119.182C269.876 119.857 270.259 120.567 270.583 121.304Z" fill="#432A3F"/>
<path d="M266.287 140.327C265.629 140.634 264.934 140.852 264.219 140.975C263.65 141.076 263.074 141.126 262.496 141.126H262.168V141.863H262.541C263.16 141.864 263.778 141.811 264.387 141.703C265.163 141.562 265.917 141.324 266.633 140.993L266.961 140.842L266.651 140.176L266.287 140.327Z" fill="#432A3F"/>
<path d="M271.206 134.495C270.772 135.738 270.133 136.899 269.315 137.93L269.084 138.214L269.652 138.685L269.883 138.392C270.758 137.3 271.439 136.066 271.898 134.744L272.031 134.397L271.33 134.149L271.206 134.495Z" fill="#432A3F"/>
<path d="M263.828 113.412L263.499 113.262L263.18 113.918L263.508 114.078C264.703 114.652 265.822 115.374 266.837 116.226L267.112 116.466L267.591 115.907L267.316 115.667C266.255 114.769 265.082 114.011 263.828 113.412Z" fill="#432A3F"/>
<path d="M317.427 99.813L313.93 106.409L318.066 104.42C318.066 104.42 332.464 108.859 332.704 108.796L341.528 108.264L332.855 103.941L317.427 99.813Z" fill="#3D4367"/>
<path d="M317.428 99.8131L341.529 108.255L317.18 91.2913L317.428 99.8131Z" fill="#4470B5"/>
<path d="M318.279 113.466L341.528 108.255L318.066 104.411L318.279 113.466Z" fill="#4470B5"/>
<path d="M564.549 365.435H18.25V369.305H564.549V365.435Z" fill="#3D4367"/>
<path d="M459.824 140.548C459.721 131.76 462.02 123.111 466.474 115.535C470.927 107.959 477.365 101.743 485.093 97.5586C492.821 93.374 501.545 91.3796 510.323 91.7908C519.102 92.2019 527.601 95.003 534.904 99.8916L537.647 97.1043C537.821 96.9294 538.038 96.803 538.277 96.7377C538.515 96.6723 538.766 96.6702 539.005 96.7315C539.245 96.7937 539.465 96.9184 539.641 97.0931C539.817 97.2677 539.944 97.4861 540.008 97.7257L544.811 115.16C544.884 115.401 544.892 115.656 544.833 115.901C544.774 116.146 544.651 116.37 544.476 116.551C544.301 116.732 544.081 116.863 543.839 116.931C543.597 116.998 543.341 117 543.097 116.935L525.592 112.372C525.353 112.308 525.136 112.182 524.96 112.008C524.785 111.833 524.658 111.616 524.593 111.377C524.528 111.139 524.525 110.887 524.587 110.648C524.649 110.408 524.772 110.189 524.944 110.011L528.033 106.878C520.747 102.508 512.221 100.668 503.782 101.645C495.342 102.622 487.462 106.361 481.367 112.28C475.272 118.199 471.304 125.966 470.08 134.374C468.856 142.781 470.446 151.357 474.6 158.768C478.755 166.179 485.243 172.009 493.054 175.351C500.865 178.694 509.562 179.361 517.791 177.249C526.02 175.137 533.321 170.365 538.558 163.674C543.794 156.984 546.673 148.75 546.746 140.255C546.741 139.866 546.882 139.49 547.139 139.2C547.397 138.909 547.753 138.725 548.139 138.683L554.886 138.612C555.073 138.63 555.255 138.685 555.419 138.775C555.584 138.865 555.729 138.988 555.844 139.136L555.898 139.198C556.176 139.528 556.324 139.948 556.315 140.379C556.328 146.715 555.094 152.991 552.682 158.85C550.269 164.708 546.727 170.034 542.256 174.524C537.786 179.013 532.475 182.578 526.626 185.015C520.778 187.452 514.507 188.713 508.171 188.727C501.836 188.74 495.559 187.505 489.701 185.093C483.842 182.681 478.516 179.139 474.027 174.668C469.537 170.198 465.972 164.886 463.535 159.038C461.098 153.19 459.837 146.919 459.824 140.583V140.548ZM543.816 115.533C543.816 115.533 543.816 115.47 543.816 115.444L539.014 98.0009C538.997 97.9395 538.964 97.8837 538.919 97.8386C538.874 97.7935 538.818 97.7608 538.756 97.7435C538.694 97.7267 538.628 97.7269 538.566 97.7441C538.503 97.7612 538.447 97.7947 538.401 97.8411L535.046 101.241L534.682 100.992C525.991 95.0658 515.568 92.2144 505.07 92.8914C494.573 93.5684 484.603 97.7349 476.745 104.729C468.887 111.723 463.592 121.142 461.702 131.491C459.812 141.839 461.436 152.522 466.314 161.842C471.193 171.162 479.047 178.583 488.627 182.927C498.208 187.271 508.966 188.288 519.191 185.816C529.416 183.344 538.521 177.525 545.06 169.284C551.598 161.044 555.194 150.854 555.276 140.335C555.277 140.179 555.238 140.026 555.161 139.891L555.108 139.837C555.037 139.754 554.957 139.68 554.868 139.616L548.166 139.66C548.024 139.66 547.811 139.944 547.811 140.201C547.756 149.005 544.781 157.541 539.352 164.471C533.923 171.402 526.347 176.334 517.813 178.496C509.279 180.657 500.269 179.925 492.196 176.414C484.122 172.903 477.443 166.811 473.204 159.095C468.966 151.379 467.408 142.475 468.775 133.778C470.143 125.081 474.358 117.084 480.76 111.041C487.161 104.998 495.388 101.25 504.149 100.386C512.91 99.5214 521.71 101.589 529.17 106.265L529.72 106.603L525.716 110.677C525.669 110.722 525.635 110.778 525.618 110.841C525.601 110.903 525.601 110.97 525.619 111.032C525.637 111.094 525.671 111.151 525.718 111.196C525.764 111.241 525.822 111.273 525.885 111.289L543.382 115.852C543.444 115.871 543.51 115.872 543.573 115.855C543.636 115.837 543.692 115.803 543.736 115.755C543.793 115.688 543.822 115.602 543.816 115.515V115.533Z" fill="black"/>
<path d="M459.824 140.548C459.721 131.76 462.02 123.111 466.474 115.535C470.927 107.959 477.365 101.743 485.093 97.5586C492.821 93.374 501.545 91.3796 510.323 91.7908C519.102 92.2019 527.601 95.003 534.904 99.8916L537.647 97.1043C537.821 96.9294 538.038 96.803 538.277 96.7377C538.515 96.6723 538.766 96.6702 539.005 96.7315C539.245 96.7937 539.465 96.9184 539.641 97.0931C539.817 97.2677 539.944 97.4861 540.008 97.7257L544.811 115.16C544.884 115.401 544.892 115.656 544.833 115.901C544.774 116.146 544.651 116.37 544.476 116.551C544.301 116.732 544.081 116.863 543.839 116.931C543.597 116.998 543.341 117 543.097 116.935L525.592 112.372C525.353 112.308 525.136 112.182 524.96 112.008C524.785 111.833 524.658 111.616 524.593 111.377C524.528 111.139 524.525 110.887 524.587 110.648C524.649 110.408 524.772 110.189 524.944 110.011L528.033 106.878C520.747 102.508 512.221 100.668 503.782 101.645C495.342 102.622 487.462 106.361 481.367 112.28C475.272 118.199 471.304 125.966 470.08 134.374C468.856 142.781 470.446 151.357 474.6 158.768C478.755 166.179 485.243 172.009 493.054 175.351C500.865 178.694 509.562 179.361 517.791 177.249C526.02 175.137 533.321 170.365 538.558 163.674C543.794 156.984 546.673 148.75 546.746 140.255C546.741 139.866 546.882 139.49 547.139 139.2C547.397 138.909 547.753 138.725 548.139 138.683L554.886 138.612C555.073 138.63 555.255 138.685 555.419 138.775C555.584 138.865 555.729 138.988 555.844 139.136L555.898 139.198C556.176 139.528 556.324 139.948 556.315 140.379C556.328 146.715 555.094 152.991 552.682 158.85C550.269 164.708 546.727 170.034 542.256 174.524C537.786 179.013 532.475 182.578 526.626 185.015C520.778 187.452 514.507 188.713 508.171 188.727C501.836 188.74 495.559 187.505 489.701 185.093C483.842 182.681 478.516 179.139 474.027 174.668C469.537 170.198 465.972 164.886 463.535 159.038C461.098 153.19 459.837 146.919 459.824 140.583V140.548ZM543.816 115.533C543.816 115.533 543.816 115.47 543.816 115.444L539.014 98.0009C538.997 97.9395 538.964 97.8837 538.919 97.8386C538.874 97.7935 538.818 97.7608 538.756 97.7435C538.694 97.7267 538.628 97.7269 538.566 97.7441C538.503 97.7612 538.447 97.7947 538.401 97.8411L535.046 101.241L534.682 100.992C525.991 95.0658 515.568 92.2144 505.07 92.8914C494.573 93.5684 484.603 97.7349 476.745 104.729C468.887 111.723 463.592 121.142 461.702 131.491C459.812 141.839 461.436 152.522 466.314 161.842C471.193 171.162 479.047 178.583 488.627 182.927C498.208 187.271 508.966 188.288 519.191 185.816C529.416 183.344 538.521 177.525 545.06 169.284C551.598 161.044 555.194 150.854 555.276 140.335C555.277 140.179 555.238 140.026 555.161 139.891L555.108 139.837C555.037 139.754 554.957 139.68 554.868 139.616L548.166 139.66C548.024 139.66 547.811 139.944 547.811 140.201C547.756 149.005 544.781 157.541 539.352 164.471C533.923 171.402 526.347 176.334 517.813 178.496C509.279 180.657 500.269 179.925 492.196 176.414C484.122 172.903 477.443 166.811 473.204 159.095C468.966 151.379 467.408 142.475 468.775 133.778C470.143 125.081 474.358 117.084 480.76 111.041C487.161 104.998 495.388 101.25 504.149 100.386C512.91 99.5214 521.71 101.589 529.17 106.265L529.72 106.603L525.716 110.677C525.669 110.722 525.635 110.778 525.618 110.841C525.601 110.903 525.601 110.97 525.619 111.032C525.637 111.094 525.671 111.151 525.718 111.196C525.764 111.241 525.822 111.273 525.885 111.289L543.382 115.852C543.444 115.871 543.51 115.872 543.573 115.855C543.636 115.837 543.692 115.803 543.736 115.755C543.793 115.688 543.822 115.602 543.816 115.515V115.533Z" fill="url(#paint13_linear_117_10415)"/>
<path d="M493.325 149.425H479.424V146.504L484.421 141.453C485.895 139.938 486.859 138.888 487.315 138.302C487.714 137.808 488.043 137.262 488.291 136.677C488.494 136.185 488.596 135.657 488.593 135.124C488.618 134.798 488.572 134.471 488.459 134.165C488.345 133.858 488.167 133.58 487.936 133.349C487.439 132.938 486.805 132.729 486.161 132.763C485.384 132.765 484.618 132.947 483.924 133.295C483.107 133.703 482.344 134.209 481.652 134.804L479.361 132.097C480.111 131.422 480.929 130.827 481.802 130.322C482.466 129.966 483.174 129.697 483.906 129.523C484.744 129.326 485.602 129.231 486.463 129.239C487.598 129.217 488.723 129.451 489.756 129.922C490.66 130.339 491.428 131 491.975 131.831C492.506 132.666 492.781 133.638 492.765 134.627C492.768 135.511 492.603 136.388 492.277 137.21C491.903 138.101 491.401 138.932 490.786 139.678C489.686 140.959 488.499 142.163 487.235 143.282L484.679 145.687V145.883H493.342L493.325 149.425Z" fill="black"/>
<path d="M493.325 149.425H479.424V146.504L484.421 141.453C485.895 139.938 486.859 138.888 487.315 138.302C487.714 137.808 488.043 137.262 488.291 136.677C488.494 136.185 488.596 135.657 488.593 135.124C488.618 134.798 488.572 134.471 488.459 134.165C488.345 133.858 488.167 133.58 487.936 133.349C487.439 132.938 486.805 132.729 486.161 132.763C485.384 132.765 484.618 132.947 483.924 133.295C483.107 133.703 482.344 134.209 481.652 134.804L479.361 132.097C480.111 131.422 480.929 130.827 481.802 130.322C482.466 129.966 483.174 129.697 483.906 129.523C484.744 129.326 485.602 129.231 486.463 129.239C487.598 129.217 488.723 129.451 489.756 129.922C490.66 130.339 491.428 131 491.975 131.831C492.506 132.666 492.781 133.638 492.765 134.627C492.768 135.511 492.603 136.388 492.277 137.21C491.903 138.101 491.401 138.932 490.786 139.678C489.686 140.959 488.499 142.163 487.235 143.282L484.679 145.687V145.883H493.342L493.325 149.425Z" fill="url(#paint14_linear_117_10415)"/>
<path d="M509.676 145.341H507.333V149.425H503.223V145.341H494.736V142.412L503.453 129.576H507.333V142.074H509.72L509.676 145.341ZM503.178 142.074V138.701C503.178 138.142 503.178 137.325 503.249 136.251C503.32 135.177 503.329 134.565 503.356 134.387H503.249C502.905 135.145 502.498 135.872 502.033 136.562L498.393 142.074H503.178Z" fill="black"/>
<path d="M509.676 145.341H507.333V149.425H503.223V145.341H494.736V142.412L503.453 129.576H507.333V142.074H509.72L509.676 145.341ZM503.178 142.074V138.701C503.178 138.142 503.178 137.325 503.249 136.251C503.32 135.177 503.329 134.565 503.356 134.387H503.249C502.905 135.145 502.498 135.872 502.033 136.562L498.393 142.074H503.178Z" fill="url(#paint15_linear_117_10415)"/>
<path d="M521.482 129.576L514.07 149.46H510.307L517.719 129.576H521.482Z" fill="black"/>
<path d="M521.482 129.576L514.07 149.46H510.307L517.719 129.576H521.482Z" fill="url(#paint16_linear_117_10415)"/>
<path d="M524.711 149.425L532.177 133.1H522.412V129.549H536.624V132.212L529.096 149.433L524.711 149.425Z" fill="black"/>
<path d="M524.711 149.425L532.177 133.1H522.412V129.549H536.624V132.212L529.096 149.433L524.711 149.425Z" fill="url(#paint17_linear_117_10415)"/>
<path d="M512.116 226.45C512.116 226.45 507.216 220.574 513.891 216.952C520.566 213.33 531.023 217.298 532.346 225.003C533.669 232.708 540.335 228.137 543.185 226.45C546.034 224.764 554.139 222.482 556.189 231.27C556.997 234.75 555.976 239.197 557.485 242.437C559.562 246.876 566.362 245.749 570.028 247.453C574.839 249.663 577.351 253.96 574.848 258.993C570.996 266.698 563.415 271.598 567.507 278.3C571.599 285.002 555.08 300.048 549.443 286.085C543.806 272.122 535 274.483 527.899 273.604C520.797 272.725 517.184 266.574 519.11 260.289C521.037 254.004 518.507 250.302 515.853 247.648C513.199 244.994 504.286 233.552 512.116 226.45Z" fill="#410A7F"/>
<path d="M501.845 301.38C497.775 302.229 493.913 303.877 490.482 306.227C490.019 306.536 489.65 306.967 489.416 307.473C489.183 307.979 489.094 308.54 489.16 309.094C489.879 314.793 492.844 333.257 502.599 351.285C503.112 352.235 503.267 353.338 503.034 354.392L501.339 362.284L498.196 365.24H506.283L511.672 350.637L509.363 349.909C508.486 349.639 507.716 349.099 507.163 348.366C506.61 347.633 506.302 346.744 506.283 345.826L506.017 330.167C506.067 325.849 504.547 321.66 501.738 318.379L514.672 317.749L501.845 301.38Z" fill="url(#paint18_linear_117_10415)"/>
<path d="M494.991 366.66C494.255 367.628 502.927 368.897 507.312 366.784C507.312 366.784 513.393 356.212 513.393 350.806C513.393 350.806 512.905 349.696 509.336 349.918C509.336 349.918 507.304 362.444 505.146 363.846C502.989 365.249 499.119 363.988 499.119 363.988C499.119 363.988 496.074 365.24 494.991 366.66Z" fill="black"/>
<path d="M494.991 366.66C494.255 367.628 502.927 368.897 507.312 366.784C507.312 366.784 513.393 356.212 513.393 350.806C513.393 350.806 512.905 349.696 509.336 349.918C509.336 349.918 507.304 362.444 505.146 363.846C502.989 365.249 499.119 363.988 499.119 363.988C499.119 363.988 496.074 365.24 494.991 366.66Z" fill="url(#paint19_linear_117_10415)"/>
<path d="M513.045 318.61C512.974 318.494 499.117 316.941 499.117 316.941C499.324 320.312 498.998 323.694 498.149 326.963C496.729 332.759 476.383 357.89 476.383 357.89L478.523 364.654C472.28 366.919 465.516 367.326 459.047 365.826L472.273 357.89C472.273 357.89 484.648 315.725 492.228 308.179L506.121 303.377L513.045 318.61Z" fill="url(#paint20_linear_117_10415)"/>
<path d="M544.124 294.074C544.124 294.074 552.113 305.951 552.761 311.366C553.409 316.781 550.578 318.983 542.198 319.355C533.818 319.728 511.457 319.719 511.457 319.719L492.363 303.404C492.363 303.404 506.273 298.433 509.895 297.03C513.517 295.628 544.124 294.074 544.124 294.074Z" fill="#410A7F"/>
<path d="M477.717 362.381C477.717 362.381 480.007 364.601 478.462 367.077C478.462 367.077 460.265 370.3 455.32 368.853C455.32 368.853 456.35 366.509 461.916 363.846L461.499 364.157C461.387 364.244 461.306 364.364 461.268 364.501C461.229 364.637 461.235 364.782 461.285 364.914C461.334 365.047 461.425 365.16 461.543 365.238C461.661 365.315 461.801 365.354 461.942 365.346C465.609 365.133 473.189 364.468 477.717 362.381Z" fill="black"/>
<path d="M477.717 362.381C477.717 362.381 480.007 364.601 478.462 367.077C478.462 367.077 460.265 370.3 455.32 368.853C455.32 368.853 456.35 366.509 461.916 363.846L461.499 364.157C461.387 364.244 461.306 364.364 461.268 364.501C461.229 364.637 461.235 364.782 461.285 364.914C461.334 365.047 461.425 365.16 461.543 365.238C461.661 365.315 461.801 365.354 461.942 365.346C465.609 365.133 473.189 364.468 477.717 362.381Z" fill="url(#paint21_linear_117_10415)"/>
<path d="M522.536 292.503C522.536 292.503 513.233 283.626 508.653 277.785C507.434 276.221 506.607 274.388 506.241 272.439C505.875 270.49 505.981 268.482 506.549 266.582C508.635 259.543 512.354 252.255 512.692 251.119C513.207 249.344 523.637 249.45 523.637 249.45C523.637 249.45 544.151 262.765 552.212 285.322L543.157 288.135C543.157 288.135 537.831 279.152 532.505 273.435C532.505 273.435 541.657 285.535 541.985 290.488L522.536 292.503Z" fill="black"/>
<path d="M522.536 292.503C522.536 292.503 513.233 283.626 508.653 277.785C507.434 276.221 506.607 274.388 506.241 272.439C505.875 270.49 505.981 268.482 506.549 266.582C508.635 259.543 512.354 252.255 512.692 251.119C513.207 249.344 523.637 249.45 523.637 249.45C523.637 249.45 544.151 262.765 552.212 285.322L543.157 288.135C543.157 288.135 537.831 279.152 532.505 273.435C532.505 273.435 541.657 285.535 541.985 290.488L522.536 292.503Z" fill="url(#paint22_linear_117_10415)"/>
<path d="M511.43 241.399C511.536 241.754 514.261 250.782 514.474 250.968C514.687 251.155 520.44 251.465 523.147 249.61L518.549 239.987L511.43 241.399Z" fill="url(#paint23_linear_117_10415)"/>
<path d="M515.896 222.438C515.896 222.438 510.987 224.515 507.649 231.608C504.312 238.7 506.762 241.985 509.931 242.438C513.1 242.89 517.751 242.819 522.713 238.23C527.675 233.641 522.261 219.988 515.896 222.438Z" fill="url(#paint24_linear_117_10415)"/>
<path d="M519.375 234.457C519.375 234.457 523.085 224.071 513.88 223.947L511.705 225.456C511.705 225.456 508.332 219.704 513.88 216.952C515.4 216.252 517.053 215.884 518.726 215.873C520.4 215.861 522.057 216.206 523.587 216.885C525.117 217.563 526.485 218.56 527.6 219.808C528.715 221.056 529.551 222.528 530.054 224.125C532.415 231.59 531.03 236.419 527.106 239.987C523.183 243.556 521.567 239.508 521.567 239.508C521.567 239.508 523.698 236.17 522.828 234.377C521.958 232.584 519.952 234.75 519.952 234.75L519.375 234.457Z" fill="url(#paint25_linear_117_10415)"/>
<path d="M518.398 236.108C518.398 236.108 520.272 230.782 522.775 232.895C525.278 235.008 520.742 237.83 518.967 238.745L518.398 236.108Z" fill="url(#paint26_linear_117_10415)"/>
<path d="M503.621 293.16L510.447 286.573L519.901 290.568C519.901 290.568 529.311 292.024 534.69 290.568L540.078 289.112L552.24 285.322L554.157 290.719C554.39 291.386 554.4 292.112 554.186 292.786C553.971 293.459 553.544 294.046 552.968 294.456C551.997 295.176 550.97 295.818 549.896 296.373C548.289 297.074 510.394 295.885 510.394 295.885L503.621 293.16Z" fill="url(#paint27_linear_117_10415)"/>
<g style="mix-blend-mode:soft-light">
<path d="M553.214 235.087H552.894C553.178 232.504 552.743 230.782 551.58 229.823C549.272 227.924 544.479 229.406 540.262 230.711C538.457 231.361 536.588 231.819 534.687 232.078C534.22 232.125 533.747 232.069 533.303 231.916C532.859 231.763 532.453 231.515 532.113 231.191C531.387 230.332 531.007 229.234 531.048 228.11H531.376C531.34 229.141 531.685 230.149 532.344 230.942C532.654 231.229 533.022 231.445 533.424 231.575C533.825 231.705 534.25 231.747 534.67 231.696C536.544 231.441 538.385 230.989 540.164 230.347C544.47 229.016 549.343 227.498 551.784 229.513C553.045 230.569 553.506 232.38 553.214 235.087Z" fill="#C0CEF8"/>
</g>
<g style="mix-blend-mode:soft-light">
<path d="M563.271 273.995C562.507 270.861 564.567 268.225 566.946 265.118C568.92 262.83 570.503 260.233 571.633 257.43C571.882 256.798 571.983 256.118 571.927 255.44C571.872 254.763 571.662 254.108 571.313 253.525C569.103 249.912 561.753 248.864 561.682 248.847L561.726 248.527C562.028 248.527 569.298 249.61 571.588 253.356C571.967 253.978 572.196 254.679 572.258 255.405C572.319 256.13 572.212 256.86 571.943 257.537C570.887 260.582 568.925 263.094 567.203 265.313C564.877 268.313 562.862 270.897 563.59 273.87L563.271 273.995Z" fill="#C0CEF8"/>
</g>
<path d="M530.162 327.327H526.566V366.243H530.162V327.327Z" fill="black"/>
<path d="M530.162 327.327H526.566V366.243H530.162V327.327Z" fill="url(#paint28_linear_117_10415)"/>
<path d="M544.125 366.997H512.604C512.604 366.376 512.85 365.78 513.29 365.34C513.729 364.901 514.325 364.654 514.947 364.654H541.79C542.412 364.654 543.008 364.901 543.448 365.34C543.887 365.78 544.134 366.376 544.134 366.997H544.125Z" fill="black"/>
<path d="M544.125 366.997H512.604C512.604 366.376 512.85 365.78 513.29 365.34C513.729 364.901 514.325 364.654 514.947 364.654H541.79C542.412 364.654 543.008 364.901 543.448 365.34C543.887 365.78 544.134 366.376 544.134 366.997H544.125Z" fill="url(#paint29_linear_117_10415)"/>
<path d="M544.932 318.61H513.046C510.909 318.61 509.176 320.343 509.176 322.48V325.978C509.176 328.115 510.909 329.848 513.046 329.848H544.932C547.069 329.848 548.802 328.115 548.802 325.978V322.48C548.802 320.343 547.069 318.61 544.932 318.61Z" fill="black"/>
<path d="M544.932 318.61H513.046C510.909 318.61 509.176 320.343 509.176 322.48V325.978C509.176 328.115 510.909 329.848 513.046 329.848H544.932C547.069 329.848 548.802 328.115 548.802 325.978V322.48C548.802 320.343 547.069 318.61 544.932 318.61Z" fill="url(#paint30_linear_117_10415)"/>
<path d="M529.441 296.267H529.352H489.717C489.246 296.267 488.794 296.08 488.461 295.747C488.128 295.414 487.941 294.962 487.941 294.491C487.941 294.02 488.128 293.569 488.461 293.236C488.794 292.903 489.246 292.716 489.717 292.716H529.343C529.814 292.704 530.27 292.88 530.611 293.205C530.953 293.529 531.151 293.976 531.163 294.447C531.175 294.918 530.999 295.374 530.674 295.715C530.349 296.057 529.903 296.255 529.432 296.267H529.441Z" fill="url(#paint31_linear_117_10415)"/>
<path d="M454.095 260.28H487.099C488.293 260.28 489.462 260.619 490.47 261.259C491.478 261.899 492.282 262.812 492.79 263.893L508.058 296.24H467.038C466.272 296.239 465.525 296.008 464.892 295.578C464.259 295.147 463.77 294.537 463.487 293.826L451.654 263.884C451.503 263.485 451.451 263.055 451.501 262.632C451.55 262.208 451.701 261.802 451.941 261.449C452.18 261.096 452.501 260.805 452.876 260.602C453.251 260.398 453.669 260.288 454.095 260.28Z" fill="#AF3DCD"/>
<path d="M584.833 297.714C584.877 297.49 584.869 297.259 584.809 297.038C584.749 296.818 584.638 296.615 584.487 296.444C584.329 296.267 584.134 296.125 583.917 296.028C583.7 295.932 583.464 295.883 583.226 295.885H417.851C417.54 295.883 417.233 295.957 416.956 296.099C416.68 296.241 416.441 296.448 416.262 296.702C416.094 296.947 415.995 297.233 415.975 297.529C415.954 297.826 416.014 298.122 416.146 298.388L417.922 302.028C418.135 302.445 418.461 302.794 418.863 303.036C419.264 303.277 419.726 303.402 420.194 303.395H582.09C582.52 303.406 582.941 303.268 583.28 303.004C583.62 302.74 583.858 302.367 583.954 301.948L584.833 297.714Z" fill="url(#paint32_linear_117_10415)"/>
<path d="M427.12 374.339C426.924 374.34 426.73 374.298 426.552 374.214C426.195 374.055 425.916 373.762 425.773 373.398C425.63 373.035 425.636 372.63 425.789 372.27L456.227 299.871C456.3 299.693 456.407 299.532 456.543 299.396C456.679 299.261 456.841 299.154 457.019 299.082C457.197 299.01 457.387 298.975 457.579 298.977C457.771 298.98 457.96 299.021 458.136 299.098C458.493 299.26 458.772 299.555 458.913 299.92C459.054 300.286 459.046 300.692 458.89 301.051L428.46 373.442C428.35 373.707 428.164 373.933 427.926 374.093C427.687 374.252 427.407 374.338 427.12 374.339Z" fill="url(#paint33_linear_117_10415)"/>
<path d="M461.41 374.339C461.126 374.338 460.847 374.253 460.611 374.096C460.374 373.938 460.189 373.713 460.079 373.451L429.64 301.06C429.486 300.701 429.479 300.295 429.62 299.93C429.761 299.566 430.039 299.27 430.395 299.107C430.57 299.029 430.76 298.987 430.952 298.983C431.144 298.98 431.335 299.016 431.513 299.088C431.691 299.16 431.853 299.267 431.989 299.403C432.125 299.539 432.231 299.701 432.303 299.88L462.786 372.27C462.94 372.629 462.946 373.033 462.805 373.396C462.664 373.759 462.387 374.053 462.032 374.214C461.837 374.304 461.624 374.347 461.41 374.339Z" fill="url(#paint34_linear_117_10415)"/>
<path d="M546.974 374.339C546.777 374.34 546.583 374.298 546.405 374.214C546.049 374.055 545.769 373.762 545.627 373.398C545.484 373.035 545.49 372.63 545.642 372.27L576.081 299.871C576.153 299.693 576.261 299.532 576.397 299.396C576.533 299.261 576.695 299.154 576.872 299.082C577.05 299.01 577.241 298.975 577.432 298.977C577.624 298.98 577.814 299.021 577.989 299.098C578.345 299.261 578.623 299.556 578.766 299.921C578.908 300.285 578.903 300.69 578.753 301.051L548.314 373.442C548.204 373.707 548.018 373.933 547.779 374.093C547.541 374.252 547.261 374.338 546.974 374.339Z" fill="url(#paint35_linear_117_10415)"/>
<path d="M581.264 374.339C580.98 374.338 580.701 374.253 580.465 374.096C580.228 373.938 580.043 373.713 579.933 373.451L549.494 301.06C549.341 300.699 549.335 300.293 549.478 299.928C549.621 299.563 549.9 299.269 550.258 299.107C550.432 299.029 550.621 298.987 550.813 298.984C551.004 298.981 551.195 299.016 551.372 299.088C551.55 299.16 551.711 299.268 551.845 299.404C551.98 299.54 552.086 299.702 552.157 299.88L582.623 372.27C582.778 372.628 582.786 373.033 582.645 373.397C582.504 373.761 582.224 374.055 581.868 374.214C581.679 374.303 581.473 374.345 581.264 374.339Z" fill="url(#paint36_linear_117_10415)"/>
<defs>
<linearGradient id="paint0_linear_117_10415" x1="123.019" y1="337.957" x2="0.851069" y2="335.931" gradientUnits="userSpaceOnUse">
<stop offset="0.23" stop-color="#7834AD"/>
<stop offset="1" stop-color="#A66ED3"/>
</linearGradient>
<linearGradient id="paint1_linear_117_10415" x1="130.493" y1="324.214" x2="19.5178" y2="265.901" gradientUnits="userSpaceOnUse">
<stop offset="0.23" stop-color="#7834AD"/>
<stop offset="1" stop-color="#A66ED3"/>
</linearGradient>
<linearGradient id="paint2_linear_117_10415" x1="294.093" y1="361.794" x2="294.093" y2="168.618" gradientUnits="userSpaceOnUse">
<stop offset="0.23" stop-color="#7834AD"/>
<stop offset="1" stop-color="#A66ED3"/>
</linearGradient>
<linearGradient id="paint3_linear_117_10415" x1="426.266" y1="215.718" x2="433.269" y2="215.718" gradientUnits="userSpaceOnUse">
<stop stop-color="#DBE1FC"/>
<stop offset="1" stop-color="#E9EDFB"/>
</linearGradient>
<linearGradient id="paint4_linear_117_10415" x1="422.992" y1="223.672" x2="436.503" y2="223.672" gradientUnits="userSpaceOnUse">
<stop stop-color="#DBE1FC"/>
<stop offset="1" stop-color="#E9EDFB"/>
</linearGradient>
<linearGradient id="paint5_linear_117_10415" x1="135.248" y1="241.994" x2="150.853" y2="241.994" gradientUnits="userSpaceOnUse">
<stop stop-color="#4344DC"/>
<stop offset="1" stop-color="#5153FA"/>
</linearGradient>
<linearGradient id="paint6_linear_117_10415" x1="141.718" y1="324.132" x2="141.718" y2="271.127" gradientUnits="userSpaceOnUse">
<stop offset="0.23" stop-color="#7834AD"/>
<stop offset="1" stop-color="#A66ED3"/>
</linearGradient>
<linearGradient id="paint7_linear_117_10415" x1="102.029" y1="351.09" x2="110.471" y2="351.09" gradientUnits="userSpaceOnUse">
<stop stop-color="#4344DC"/>
<stop offset="1" stop-color="#5153FA"/>
</linearGradient>
<linearGradient id="paint8_linear_117_10415" x1="143.174" y1="214.065" x2="141.716" y2="158.381" gradientUnits="userSpaceOnUse">
<stop offset="0.23" stop-color="#7834AD"/>
<stop offset="1" stop-color="#A66ED3"/>
</linearGradient>
<linearGradient id="paint9_linear_117_10415" x1="128.5" y1="218.497" x2="128.5" y2="153.995" gradientUnits="userSpaceOnUse">
<stop offset="0.23" stop-color="#7834AD"/>
<stop offset="1" stop-color="#A66ED3"/>
</linearGradient>
<linearGradient id="paint10_linear_117_10415" x1="154.62" y1="213.888" x2="154.62" y2="158.019" gradientUnits="userSpaceOnUse">
<stop offset="0.23" stop-color="#7834AD"/>
<stop offset="1" stop-color="#A66ED3"/>
</linearGradient>
<linearGradient id="paint11_linear_117_10415" x1="88.8625" y1="223.958" x2="63.4079" y2="193.579" gradientUnits="userSpaceOnUse">
<stop offset="0.23" stop-color="#7834AD"/>
<stop offset="1" stop-color="#A66ED3"/>
</linearGradient>
<linearGradient id="paint12_linear_117_10415" x1="68.6376" y1="230.231" x2="68.6376" y2="185.55" gradientUnits="userSpaceOnUse">
<stop offset="0.23" stop-color="#7834AD"/>
<stop offset="1" stop-color="#A66ED3"/>
</linearGradient>
<linearGradient id="paint13_linear_117_10415" x1="508.064" y1="188.744" x2="508.064" y2="91.7379" gradientUnits="userSpaceOnUse">
<stop offset="0.23" stop-color="#7834AD"/>
<stop offset="1" stop-color="#A66ED3"/>
</linearGradient>
<linearGradient id="paint14_linear_117_10415" x1="486.351" y1="149.428" x2="486.351" y2="129.237" gradientUnits="userSpaceOnUse">
<stop offset="0.23" stop-color="#7834AD"/>
<stop offset="1" stop-color="#A66ED3"/>
</linearGradient>
<linearGradient id="paint15_linear_117_10415" x1="502.228" y1="149.428" x2="502.228" y2="129.576" gradientUnits="userSpaceOnUse">
<stop offset="0.23" stop-color="#7834AD"/>
<stop offset="1" stop-color="#A66ED3"/>
</linearGradient>
<linearGradient id="paint16_linear_117_10415" x1="515.894" y1="149.464" x2="515.894" y2="129.576" gradientUnits="userSpaceOnUse">
<stop offset="0.23" stop-color="#7834AD"/>
<stop offset="1" stop-color="#A66ED3"/>
</linearGradient>
<linearGradient id="paint17_linear_117_10415" x1="529.517" y1="149.437" x2="529.517" y2="129.549" gradientUnits="userSpaceOnUse">
<stop offset="0.23" stop-color="#7834AD"/>
<stop offset="1" stop-color="#A66ED3"/>
</linearGradient>
<linearGradient id="paint18_linear_117_10415" x1="511.556" y1="364.778" x2="498.676" y2="306.44" gradientUnits="userSpaceOnUse">
<stop stop-color="#E5908C"/>
<stop offset="1" stop-color="#EAB0AF"/>
</linearGradient>
<linearGradient id="paint19_linear_117_10415" x1="504.169" y1="367.935" x2="504.169" y2="349.889" gradientUnits="userSpaceOnUse">
<stop offset="0.23" stop-color="#7834AD"/>
<stop offset="1" stop-color="#A66ED3"/>
</linearGradient>
<linearGradient id="paint20_linear_117_10415" x1="534.181" y1="225.012" x2="503.964" y2="298.601" gradientUnits="userSpaceOnUse">
<stop stop-color="#E5908C"/>
<stop offset="1" stop-color="#EAB0AF"/>
</linearGradient>
<linearGradient id="paint21_linear_117_10415" x1="467.158" y1="369.228" x2="467.158" y2="362.381" gradientUnits="userSpaceOnUse">
<stop offset="0.23" stop-color="#7834AD"/>
<stop offset="1" stop-color="#A66ED3"/>
</linearGradient>
<linearGradient id="paint22_linear_117_10415" x1="529.117" y1="292.51" x2="529.117" y2="249.449" gradientUnits="userSpaceOnUse">
<stop offset="0.23" stop-color="#7834AD"/>
<stop offset="1" stop-color="#A66ED3"/>
</linearGradient>
<linearGradient id="paint23_linear_117_10415" x1="512.166" y1="234.049" x2="525.047" y2="265.579" gradientUnits="userSpaceOnUse">
<stop stop-color="#E5908C"/>
<stop offset="1" stop-color="#EAB0AF"/>
</linearGradient>
<linearGradient id="paint24_linear_117_10415" x1="-1027.48" y1="392.661" x2="-1007.24" y2="390.566" gradientUnits="userSpaceOnUse">
<stop stop-color="#E5908C"/>
<stop offset="1" stop-color="#EAB0AF"/>
</linearGradient>
<linearGradient id="paint25_linear_117_10415" x1="408.929" y1="113.057" x2="610.221" y2="316.274" gradientUnits="userSpaceOnUse">
<stop stop-color="#0F005B"/>
<stop offset="1" stop-color="#1E168C"/>
</linearGradient>
<linearGradient id="paint26_linear_117_10415" x1="-1027.14" y1="396.326" x2="-1006.9" y2="394.222" gradientUnits="userSpaceOnUse">
<stop stop-color="#E5908C"/>
<stop offset="1" stop-color="#EAB0AF"/>
</linearGradient>
<linearGradient id="paint27_linear_117_10415" x1="582.483" y1="295.157" x2="520.46" y2="289.636" gradientUnits="userSpaceOnUse">
<stop stop-color="#E5908C"/>
<stop offset="1" stop-color="#EAB0AF"/>
</linearGradient>
<linearGradient id="paint28_linear_117_10415" x1="528.364" y1="366.25" x2="528.364" y2="327.327" gradientUnits="userSpaceOnUse">
<stop offset="0.23" stop-color="#7834AD"/>
<stop offset="1" stop-color="#A66ED3"/>
</linearGradient>
<linearGradient id="paint29_linear_117_10415" x1="528.367" y1="366.998" x2="528.367" y2="364.654" gradientUnits="userSpaceOnUse">
<stop offset="0.23" stop-color="#7834AD"/>
<stop offset="1" stop-color="#A66ED3"/>
</linearGradient>
<linearGradient id="paint30_linear_117_10415" x1="528.987" y1="329.85" x2="528.987" y2="318.61" gradientUnits="userSpaceOnUse">
<stop offset="0.23" stop-color="#7834AD"/>
<stop offset="1" stop-color="#A66ED3"/>
</linearGradient>
<linearGradient id="paint31_linear_117_10415" x1="536.028" y1="285.862" x2="504.569" y2="296.18" gradientUnits="userSpaceOnUse">
<stop stop-color="#0F005B"/>
<stop offset="1" stop-color="#1E168C"/>
</linearGradient>
<linearGradient id="paint32_linear_117_10415" x1="415.969" y1="299.64" x2="584.86" y2="299.64" gradientUnits="userSpaceOnUse">
<stop stop-color="#DBE1FC"/>
<stop offset="1" stop-color="#E9EDFB"/>
</linearGradient>
<linearGradient id="paint33_linear_117_10415" x1="425.673" y1="336.656" x2="459.015" y2="336.656" gradientUnits="userSpaceOnUse">
<stop stop-color="#DBE1FC"/>
<stop offset="1" stop-color="#E9EDFB"/>
</linearGradient>
<linearGradient id="paint34_linear_117_10415" x1="429.525" y1="336.656" x2="462.857" y2="336.656" gradientUnits="userSpaceOnUse">
<stop stop-color="#DBE1FC"/>
<stop offset="1" stop-color="#E9EDFB"/>
</linearGradient>
<linearGradient id="paint35_linear_117_10415" x1="545.527" y1="336.656" x2="578.868" y2="336.656" gradientUnits="userSpaceOnUse">
<stop stop-color="#DBE1FC"/>
<stop offset="1" stop-color="#E9EDFB"/>
</linearGradient>
<linearGradient id="paint36_linear_117_10415" x1="549.379" y1="336.656" x2="582.72" y2="336.656" gradientUnits="userSpaceOnUse">
<stop stop-color="#DBE1FC"/>
<stop offset="1" stop-color="#E9EDFB"/>
</linearGradient>
</defs>
</svg>
